<?xml version="1.0" encoding="utf-8"?>
<!-- Generator: Adobe Illustrator 24.3.0, SVG Export Plug-In . SVG Version: 6.00 Build 0)  -->
<svg version="1.1" xmlns="http://www.w3.org/2000/svg" xmlns:xlink="http://www.w3.org/1999/xlink" x="0px" y="0px"
	 viewBox="0 0 844.89 728.28" style="enable-background:new 0 0 844.89 728.28;" xml:space="preserve">
<style type="text/css">
	.st0_new{display:none;}
	.st1_new{display:inline;fill:url(#SVGID_1_);}
	.st2-new{fill:url(#SVGID_2_new);}
	.st3_new{fill:url(#SVGID_3_new);}
	.st4_new{fill:url(#SVGID_4_);}
	.st5_new{fill:url(#SVGID_5_);}
	.st6_new{fill:url(#SVGID_6_);}
	.st7_new{fill:url(#SVGID_7_);}
	.st8_new{fill:url(#SVGID_8_);}
	.st9_new{fill:url(#SVGID_9_);}
	.st10_new{fill:url(#SVGID_10_);}
	.st11_new{fill:url(#SVGID_11_);}
	.st12_new{fill:url(#SVGID_12_);}
	.st13_new{fill:url(#SVGID_13_);}
	.st14_new{fill:url(#SVGID_14_);}
</style>
<g id="Layer_2" class="st0_new">
	<linearGradient id="SVGID_1_" gradientUnits="userSpaceOnUse" x1="359.4196" y1="728.2803" x2="359.4196" y2="-71.7197">
		<stop  offset="0" style="stop-color:#16222A"/>
		<stop  offset="7.920444e-03" style="stop-color:#17232B"/>
		<stop  offset="0.2752" style="stop-color:#263D4A"/>
		<stop  offset="0.5347" style="stop-color:#315161"/>
		<stop  offset="0.7811" style="stop-color:#385C6E"/>
		<stop  offset="1" style="stop-color:#3A6073"/>
	</linearGradient>
	<rect x="-180.58" y="-71.72" class="st1_new" width="1080" height="800"/>
</g>
<g id="Layer_1">
	
		<linearGradient id="SVGID_2_new" gradientUnits="userSpaceOnUse" x1="463.6424" y1="183.6606" x2="830.9647" y2="183.6606" gradientTransform="matrix(-1.0348 0 0 1 1293.9524 0)">
		<stop  offset="0" style="stop-color:#F2994A"/>
		<stop  offset="0.2737" style="stop-color:#F29E4A"/>
		<stop  offset="0.5895" style="stop-color:#F2AC4B"/>
		<stop  offset="0.9248" style="stop-color:#F2C34C"/>
		<stop  offset="1" style="stop-color:#F2C94C"/>
	</linearGradient>
	<ellipse class="st2-new" cx="624.14" cy="183.66" rx="190.05" ry="183.66"/>
	<g>
		
			<linearGradient id="SVGID_3_new" gradientUnits="userSpaceOnUse" x1="760.6415" y1="255.063" x2="784.8158" y2="255.063" gradientTransform="matrix(-1.0348 0 0 1 1293.9524 0)">
			<stop  offset="0" style="stop-color:#FC4A1A"/>
			<stop  offset="0.108" style="stop-color:#FB6520"/>
			<stop  offset="0.2542" style="stop-color:#F98327"/>
			<stop  offset="0.4093" style="stop-color:#F89A2C"/>
			<stop  offset="0.5754" style="stop-color:#F8AA30"/>
			<stop  offset="0.7599" style="stop-color:#F7B432"/>
			<stop  offset="1" style="stop-color:#F7B733"/>
		</linearGradient>
		<polygon class="st3_new" points="506.86,227.09 506.86,274.88 485.17,283.04 481.85,227.09 		"/>
		
			<linearGradient id="SVGID_4_" gradientUnits="userSpaceOnUse" x1="661.93" y1="243.2639" x2="692.2123" y2="243.2639" gradientTransform="matrix(-1.0348 0 0 1 1293.9524 0)">
			<stop  offset="0" style="stop-color:#FC4A1A"/>
			<stop  offset="0.108" style="stop-color:#FB6520"/>
			<stop  offset="0.2542" style="stop-color:#F98327"/>
			<stop  offset="0.4093" style="stop-color:#F89A2C"/>
			<stop  offset="0.5754" style="stop-color:#F8AA30"/>
			<stop  offset="0.7599" style="stop-color:#F7B432"/>
			<stop  offset="1" style="stop-color:#F7B733"/>
		</linearGradient>
		<polygon class="st4_new" points="609,274.88 577.67,260.46 577.67,220.01 590.33,211.65 609,224.66 		"/>
		
			<linearGradient id="SVGID_5_" gradientUnits="userSpaceOnUse" x1="696.0589" y1="498.4219" x2="755.0702" y2="498.4219" gradientTransform="matrix(-1.0348 0 0 1 1293.9524 0)">
			<stop  offset="0" style="stop-color:#FC4A1A"/>
			<stop  offset="0.108" style="stop-color:#FB6520"/>
			<stop  offset="0.2542" style="stop-color:#F98327"/>
			<stop  offset="0.4093" style="stop-color:#F89A2C"/>
			<stop  offset="0.5754" style="stop-color:#F8AA30"/>
			<stop  offset="0.7599" style="stop-color:#F7B432"/>
			<stop  offset="1" style="stop-color:#F7B733"/>
		</linearGradient>
		<rect x="512.63" y="468.92" class="st5_new" width="61.06" height="59.01"/>
		
			<linearGradient id="SVGID_6_" gradientUnits="userSpaceOnUse" x1="771.953" y1="540.228" x2="830.9647" y2="540.228" gradientTransform="matrix(-1.0348 0 0 1 1293.9524 0)">
			<stop  offset="0" style="stop-color:#FC4A1A"/>
			<stop  offset="0.108" style="stop-color:#FB6520"/>
			<stop  offset="0.2542" style="stop-color:#F98327"/>
			<stop  offset="0.4093" style="stop-color:#F89A2C"/>
			<stop  offset="0.5754" style="stop-color:#F8AA30"/>
			<stop  offset="0.7599" style="stop-color:#F7B432"/>
			<stop  offset="1" style="stop-color:#F7B733"/>
		</linearGradient>
		<rect x="434.09" y="510.72" class="st6_new" width="61.06" height="59.01"/>
		
			<linearGradient id="SVGID_7_" gradientUnits="userSpaceOnUse" x1="812.7132" y1="472.6958" x2="871.7245" y2="472.6958" gradientTransform="matrix(-1.0348 0 0 1 1293.9524 0)">
			<stop  offset="0" style="stop-color:#FC4A1A"/>
			<stop  offset="0.108" style="stop-color:#FB6520"/>
			<stop  offset="0.2542" style="stop-color:#F98327"/>
			<stop  offset="0.4093" style="stop-color:#F89A2C"/>
			<stop  offset="0.5754" style="stop-color:#F8AA30"/>
			<stop  offset="0.7599" style="stop-color:#F7B432"/>
			<stop  offset="1" style="stop-color:#F7B733"/>
		</linearGradient>
		<rect x="391.91" y="443.19" class="st7_new" width="61.06" height="59.01"/>
		
			<linearGradient id="SVGID_8_" gradientUnits="userSpaceOnUse" x1="806.9247" y1="398.732" x2="865.9364" y2="398.732" gradientTransform="matrix(-1.0348 0 0 1 1293.9524 0)">
			<stop  offset="0" style="stop-color:#FC4A1A"/>
			<stop  offset="0.108" style="stop-color:#FB6520"/>
			<stop  offset="0.2542" style="stop-color:#F98327"/>
			<stop  offset="0.4093" style="stop-color:#F89A2C"/>
			<stop  offset="0.5754" style="stop-color:#F8AA30"/>
			<stop  offset="0.7599" style="stop-color:#F7B432"/>
			<stop  offset="1" style="stop-color:#F7B733"/>
		</linearGradient>
		<rect x="397.9" y="369.23" class="st8_new" width="61.06" height="59.01"/>
		
			<linearGradient id="SVGID_9_" gradientUnits="userSpaceOnUse" x1="701.6297" y1="409.0215" x2="760.6415" y2="409.0215" gradientTransform="matrix(-1.0348 0 0 1 1293.9524 0)">
			<stop  offset="0" style="stop-color:#FC4A1A"/>
			<stop  offset="0.108" style="stop-color:#FB6520"/>
			<stop  offset="0.2542" style="stop-color:#F98327"/>
			<stop  offset="0.4093" style="stop-color:#F89A2C"/>
			<stop  offset="0.5754" style="stop-color:#F8AA30"/>
			<stop  offset="0.7599" style="stop-color:#F7B432"/>
			<stop  offset="1" style="stop-color:#F7B733"/>
		</linearGradient>
		<rect x="506.86" y="379.52" class="st9_new" width="61.06" height="59.01"/>
		
			<linearGradient id="SVGID_10_" gradientUnits="userSpaceOnUse" x1="696.0589" y1="246.6995" x2="755.0702" y2="246.6995" gradientTransform="matrix(-1.0348 0 0 1 1293.9524 0)">
			<stop  offset="0" style="stop-color:#FC4A1A"/>
			<stop  offset="0.108" style="stop-color:#FB6520"/>
			<stop  offset="0.2542" style="stop-color:#F98327"/>
			<stop  offset="0.4093" style="stop-color:#F89A2C"/>
			<stop  offset="0.5754" style="stop-color:#F8AA30"/>
			<stop  offset="0.7599" style="stop-color:#F7B432"/>
			<stop  offset="1" style="stop-color:#F7B733"/>
		</linearGradient>
		<rect x="512.63" y="217.19" class="st10_new" width="61.06" height="59.01"/>
		
			<linearGradient id="SVGID_11_" gradientUnits="userSpaceOnUse" x1="564.6351" y1="423.814" x2="623.6468" y2="423.814" gradientTransform="matrix(-1.0348 0 0 1 1293.9524 0)">
			<stop  offset="0" style="stop-color:#FC4A1A"/>
			<stop  offset="0.108" style="stop-color:#FB6520"/>
			<stop  offset="0.2542" style="stop-color:#F98327"/>
			<stop  offset="0.4093" style="stop-color:#F89A2C"/>
			<stop  offset="0.5754" style="stop-color:#F8AA30"/>
			<stop  offset="0.7599" style="stop-color:#F7B432"/>
			<stop  offset="1" style="stop-color:#F7B733"/>
		</linearGradient>
		<rect x="648.62" y="394.31" class="st11_new" width="61.06" height="59.01"/>
		
			<linearGradient id="SVGID_12_" gradientUnits="userSpaceOnUse" x1="557.3988" y1="364.8028" x2="616.4105" y2="364.8028" gradientTransform="matrix(-1.0348 0 0 1 1293.9524 0)">
			<stop  offset="0" style="stop-color:#FC4A1A"/>
			<stop  offset="0.108" style="stop-color:#FB6520"/>
			<stop  offset="0.2542" style="stop-color:#F98327"/>
			<stop  offset="0.4093" style="stop-color:#F89A2C"/>
			<stop  offset="0.5754" style="stop-color:#F8AA30"/>
			<stop  offset="0.7599" style="stop-color:#F7B432"/>
			<stop  offset="1" style="stop-color:#F7B733"/>
		</linearGradient>
		<rect x="656.11" y="335.3" class="st12_new" width="61.06" height="59.01"/>
		
			<linearGradient id="SVGID_13_" gradientUnits="userSpaceOnUse" x1="417.2004" y1="319.7095" x2="476.2115" y2="319.7095" gradientTransform="matrix(-1.758 0 0 1 1337.649 0)">
			<stop  offset="0" style="stop-color:#FC4A1A"/>
			<stop  offset="0.108" style="stop-color:#FB6520"/>
			<stop  offset="0.2542" style="stop-color:#F98327"/>
			<stop  offset="0.4093" style="stop-color:#F89A2C"/>
			<stop  offset="0.5754" style="stop-color:#F8AA30"/>
			<stop  offset="0.7599" style="stop-color:#F7B432"/>
			<stop  offset="1" style="stop-color:#F7B733"/>
		</linearGradient>
		<rect x="500.48" y="290.2" class="st13_new" width="103.74" height="59.01"/>
		
			<linearGradient id="SVGID_14_" gradientUnits="userSpaceOnUse" x1="755.159" y1="532.3014" x2="946.1683" y2="532.3014" gradientTransform="matrix(-0.7652 0 0 0.843 1314.3491 71.4799)">
			<stop  offset="0" style="stop-color:#FC4A1A"/>
			<stop  offset="0.108" style="stop-color:#FB6520"/>
			<stop  offset="0.2542" style="stop-color:#F98327"/>
			<stop  offset="0.4093" style="stop-color:#F89A2C"/>
			<stop  offset="0.5754" style="stop-color:#F8AA30"/>
			<stop  offset="0.7599" style="stop-color:#F7B432"/>
			<stop  offset="1" style="stop-color:#F7B733"/>
		</linearGradient>
		<rect x="590.33" y="464.1" class="st14_new" width="146.16" height="112.23"/>
		<path d="M43.92,710.1l87.85-10.29l67.88-25.08l47.25-5.79l26.62-14.79l6.66-21.22l-23.29-11.58l-18.64-14.15v-10.29l37.94,2.57
			l66.92-6.62V548.7l-16.35-0.4v-6.08c0,0,31.86-15.39,63.3-44.56v-36.87h-32.7c0,0,38.15-69.68,46.95-139.36l-6.71-15.8l83,36.87
			l2.1,8.51h5.87l0.42-29.17l-8.38,3.24l-31.86-17.42l31.02-23.09l-0.84-47.4h-7.96l-5.87-4.86c0,0,14.25-19.58,17.89-31.73h7.55
			l27.95,12.15l-4.75-11.07l29.9-57.53l28.23,56.72l-6.43,8.37l1.12,6.48l27.95-15.12l24.87,27.82l-8.66,2.7l-0.28,25.39l27.95,26.2
			l-29.62,18.91v42.67l113.19-53.21l-10.9,19.44l27.39,65.36l46.67,78.05l-39.97,14.31l0.56,14.04h14.81l45.27,27.55l-19.98,2.84v47
			l2.93,6.89v19.04l17.05,10.05l15.48,16.72v19.29L844.89,649v78.14H0L43.92,710.1z M598,330.94v-14.18l-9.22-3.24l-0.63,13.98
			L598,330.94z M586.47,331.55l0.21,12.36l9.85,3.24l0.42-12.15L586.47,331.55z M582.69,329.32l-8.17-2.43l0.42,13.98l7.34,2.43
			L582.69,329.32z M521.49,327.5l7.55-4.25l-0.21-12.96l-10.48,1.01L521.49,327.5z M517.09,333.98l-5.87,3.24l0.42,11.34l6.71-3.04
			L517.09,333.98z M521.28,332.16l1.68,12.96l6.5-2.63l-0.21-14.38L521.28,332.16z M524.21,383.81l3.98,22.48l6.5-1.82l-3.35-20.86
			L524.21,383.81z M528.82,410.14l3.56,24.71h5.87l-2.93-24.71H528.82z M539.52,404.47l7.55-1.21l-0.84-18.23l-10.48-0.81
			L539.52,404.47z M539.31,408.93l3.56,26.33h3.77v-27.14L539.31,408.93z M527.78,473.75l3.14,22.08l15.72-2.43l2.73-16.61
			L527.78,473.75z M531.55,500.49l3.77,20.66l6.29,0.4l5.66-24.11L531.55,500.49z M547.06,520.54l15.3,0.61l-0.21-25.73l-10.69,0.81
			L547.06,520.54z M408.3,565.51h-10.06l0.42,8.51h6.92L408.3,565.51z M375.6,571.99l-0.63-7.7l-7.76,1.22l1.05,6.68L375.6,571.99z
			 M362.61,565.1h-9.01l0.63,6.89h8.18L362.61,565.1z M389.02,546.47l-37.73-2.03l1.26,16l38.15,0.81L389.02,546.47z M390.48,565.51
			l-11.11,0.4l0.63,6.69l11.74,0.4L390.48,565.51z M397.82,561.05l9.85,0.61l4.19-18.43l-14.04,0.41V561.05z M403.27,451.47
			l0.21,25.52l9.64-7.29l-0.63-19.24L403.27,451.47z M413.96,475.98l-10.69,6.68l0.21,2.84l10.69-0.81L413.96,475.98z
			 M414.59,405.49l-4.61,0.41c0.63,8.91,4.19,13.57,4.19,13.57L414.59,405.49z M409.56,401.43h5.03l0.84-18.84
			C408.93,386.44,409.56,401.43,409.56,401.43z M414.38,489.14l-11.74,0.81l0.42,6.89l12.37-1.82L414.38,489.14z M417.52,467.67
			l8.38-5.47l-0.42-14.18l-8.59,0.81L417.52,467.67z M420.46,383l-0.63,18.03l6.5,0.2C426.54,388.27,420.46,383,420.46,383z
			 M417.94,406.09l1.26,15.6c0,0,7.13-8.51,7.13-15.6H417.94z M426.75,466.25l-8.39,6.08l0.84,11.75l8.38-1.22L426.75,466.25z
			 M427.59,487.32l-8.18,0.41l0.84,7.09l7.34,0.2V487.32z M457.77,526.42h-12.58l5.45,19.45l7.55,0.2L457.77,526.42z M448.76,550.93
			l3.35,10.73h6.29l0.21-11.14L448.76,550.93z M463.22,562.07h11.74l1.05-11.55h-13.42L463.22,562.07z M463.01,527.02v19.04l13-0.2
			l0.63-17.62L463.01,527.02z M491.1,238.57l-6.5,3.24l3.14,32.61l5.03-1.01L491.1,238.57z M496.13,234.93l1.05,36.87l5.87-2.23
			l0.42-37.88L496.13,234.93z M512.06,297.32l-1.26,0.41l0.42,9.11l2.1-0.4L512.06,297.32z M514.15,311.5l-3.56,0.2l0.84,19.45
			l5.24-1.82L514.15,311.5z M517.09,294.89l0.63,10.53l11.32,0.61v-14.38L517.09,294.89z M535.32,223.79
			c-6.08,1.01-8.38,6.28-8.38,6.28l-0.84,7.9h10.06L535.32,223.79z M526.1,242.62l0.42,25.12l14.04,3.04l-3.77-27.55L526.1,242.62z
			 M540.14,222.37l1.26,16l12.16-0.4l0.63-8.31C550.41,221.96,540.14,222.37,540.14,222.37z M554.61,243.23l-11.74-0.41l2.52,28.76
			l11.32,3.04L554.61,243.23z M555.03,477.39l-3.56,15.19l10.69-1.82l0.42-12.15L555.03,477.39z M583.11,325.47l0.84-13.17
			l-9.01-3.65l-0.63,13.17L583.11,325.47z M574.52,304.2l9.64,3.85l1.68-12.36l-11.32-5.06V304.2z M585,251.13l6.92,3.04l0.42-11.55
			l-7.13-4.05L585,251.13z M587.31,219.53l-0.84,14.99l6.08,3.65l1.05-16.41L587.31,219.53z M589.82,297.52l-1.05,11.95l10.69,3.24
			l-0.42-11.14L589.82,297.52z M595.9,256.2l8.59,4.86l0.63-13.57l-8.8-3.85L595.9,256.2z M597.37,224.39l0.42,14.18l7.34,3.65
			l0.42-15.19L597.37,224.39z M618.12,549.91l9.78-0.81l1.82-24.17l-10.34-1.75L618.12,549.91z M619.52,518.52l11.18,2.5l2.1-24.44
			l-11.88-4.19L619.52,518.52z M621.33,487.4l11.46,4.98l0.98-13.37C625.66,477.94,621.33,487.4,621.33,487.4z M632.79,547.89
			l13.42-2.03l0.7-16.61l-12.3-2.16L632.79,547.89z M634.61,520.88l12.3,4.05v-24.17l-10.2-2.7L634.61,520.88z M638.24,479.02
			l-0.7,13.37l9.36,4.19C646.9,496.57,649.56,483.34,638.24,479.02z M656.27,547.89h12.02v-29.37l-10.06,3.04L656.27,547.89z
			 M658.78,517.5l10.48-2.03V493.6h-9.78L658.78,517.5z M669.96,490.02v-10.03c-8.8,1.92-9.08,10.03-9.08,10.03H669.96z
			 M664.86,409.94l-0.84,15.19l11.11-3.65l0.63-20.86C665.91,401.84,664.86,409.94,664.86,409.94z M675.34,426.75l-12.58,3.65
			l-1.26,17.83l14.46-1.82L675.34,426.75z M692.74,373.07l-3.98,9.52c2.72,3.65,7.34,1.01,7.34,1.01L692.74,373.07z M699.45,379.35
			c0,0,3.98-4.86,2.93-9.32l-8.17-2.43L699.45,379.35z M689.17,366.19l-6.92-1.62c-0.84,7.9,3.56,12.96,3.56,12.96L689.17,366.19z
			 M680.16,425.54l-0.21,20.66l12.58-2.03l0.63-22.28L680.16,425.54z M674.57,490.02h11.32c-2.1-10.06-11.32-11.01-11.32-11.01
			V490.02z M674.01,494.81v19.85l11.88-2.57v-17.29H674.01z M686.45,516.42l-13.97,2.7v28.76l14.95,1.22L686.45,516.42z
			 M679.95,400.83l0.42,19.65l11.74-2.84l0.42-10.74C688.13,400.02,679.95,400.83,679.95,400.83z M682.05,359.91l3.98,1.21
			l-2.94-6.68C683.1,354.44,681.21,357.28,682.05,359.91z M684.77,346.54l6.5,14.99l6.29-19.04
			C691.9,336.61,684.77,346.54,684.77,346.54z M701.33,348.57l-6.71,14.79l8.59,2.23C703.22,365.58,704.48,355.25,701.33,348.57z
			 M702.66,483.47c-6.16,3.39-4.89,13.1-4.89,13.1l5.87-0.54L702.66,483.47z M704.37,500.08l-6.6,1.62v16.81l8.17-1.01
			L704.37,500.08z M698.82,523.17v23.7l11.11,2.23l-2.93-27.55L698.82,523.17z M706.85,480.37l1.54,14.45l15.23-3.11
			C723.62,491.71,721.94,477.53,706.85,480.37z M723.34,496.03l-13.42,3.65l1.68,17.83l12.79-1.21L723.34,496.03z M724.39,519.53
			l-12.79,1.82l2.93,28.56l12.16,3.04L724.39,519.53z M744.51,563.28h6.78l-2.17-15.39h-2.93L744.51,563.28z M776.72,510.88h-26.55
			l-2.52,32.14l29.07,3.51V510.88z M753.52,549.1l2.31,14.18h7.76l-2.93-14.18H753.52z M776.72,550.93l-11.88-1.82l3.14,12.56h8.73
			V550.93z"/>
		<polygon points="711.4,261.2 699.43,252.36 690.93,256.68 689.1,256.29 689.43,252.31 686.34,253.88 684.72,253.69 682.88,251.05 
			681.43,254.74 678.04,251.49 675.05,247.02 671.46,246.04 656.11,251.82 662.3,252.72 664.48,254.8 665.27,257.28 669.65,256.76 
			672.27,261.88 674.82,261.67 677.54,263.71 679.84,267.21 681.12,274.88 685.1,269.05 688.12,267.2 691.22,267.57 694.48,265.14 
			697.08,264.59 700.54,265.79 701.98,262.65 706.14,261 		"/>
		<polygon points="609,183.66 604.29,174.79 597.72,175.04 596.71,174.28 598.13,171.92 595.74,172.01 594.79,171.43 594.46,169.28 
			592.43,171.15 591.34,168.17 590.85,164.56 588.92,162.94 577.67,162.15 581.23,164.46 581.94,166.37 581.67,168.12 
			584.54,169.05 584.61,172.96 586.24,173.56 587.3,175.59 587.66,178.4 586.12,183.51 590.36,181.04 592.78,180.75 594.59,181.86 
			597.34,181.28 599.12,181.69 600.9,183.41 602.73,181.88 605.81,182.04 		"/>
		<polygon points="683.75,207.69 672.47,203.32 666.82,208.46 665.31,208.53 664.68,205.37 662.63,207.23 661.32,207.43 
			659.3,205.76 659,208.94 655.64,207.11 652.32,204.26 649.31,204.25 638.66,211.96 643.68,211.36 645.84,212.52 647,214.28 
			650.3,212.96 653.48,216.4 655.42,215.71 657.99,216.72 660.56,218.96 663.27,224.66 665.06,219.29 666.99,217.22 669.49,216.86 
			671.48,214.29 673.38,213.32 676.34,213.53 676.75,210.79 679.62,208.63 		"/>
		<polygon points="665.09,290.2 660.35,292.69 660.35,296.96 655.86,300.58 654.61,307.81 646.62,303.23 638.64,305.4 
			635.39,304.92 632.15,304.92 638.39,297.2 645.62,297.92 647.12,295.75 651.61,296.48 655.11,290.2 		"/>
		<polygon points="523.33,175.72 518.59,178.21 518.59,182.47 514.1,186.09 512.85,193.33 504.86,188.74 496.88,190.92 
			493.63,190.43 490.39,190.43 496.63,182.71 503.87,183.44 505.36,181.27 509.86,181.99 513.35,175.72 		"/>
		<polygon points="757.31,276.21 753.07,272.98 749.02,274.66 743.8,272.1 736.43,273.85 737.63,264.95 732.42,258.72 
			731.59,255.65 730.31,252.77 740.11,255.26 742.28,261.97 744.94,262.44 746.03,266.72 753.37,267.34 		"/>
	</g>
</g>
</svg>
